<svg id="visual" viewBox="0 0 900 600" width="900" height="600" xmlns="http://www.w3.org/2000/svg" xmlns:xlink="http://www.w3.org/1999/xlink" version="1.1"><path d="M0 427L15 427.5C30 428 60 429 90 432C120 435 150 440 180 434.7C210 429.3 240 413.7 270 404C300 394.3 330 390.7 360 391.3C390 392 420 397 450 406C480 415 510 428 540 430.2C570 432.3 600 423.7 630 411.5C660 399.3 690 383.7 720 386C750 388.3 780 408.7 810 407.8C840 407 870 385 885 374L900 363L900 601L885 601C870 601 840 601 810 601C780 601 750 601 720 601C690 601 660 601 630 601C600 601 570 601 540 601C510 601 480 601 450 601C420 601 390 601 360 601C330 601 300 601 270 601C240 601 210 601 180 601C150 601 120 601 90 601C60 601 30 601 15 601L0 601Z" fill="#1bd021"></path><path d="M0 442L15 442.5C30 443 60 444 90 446.5C120 449 150 453 180 452.5C210 452 240 447 270 446.2C300 445.3 330 448.7 360 453.7C390 458.7 420 465.3 450 466.2C480 467 510 462 540 452.8C570 443.7 600 430.3 630 421.5C660 412.7 690 408.3 720 418C750 427.7 780 451.3 810 451.3C840 451.3 870 427.7 885 415.8L900 404L900 601L885 601C870 601 840 601 810 601C780 601 750 601 720 601C690 601 660 601 630 601C600 601 570 601 540 601C510 601 480 601 450 601C420 601 390 601 360 601C330 601 300 601 270 601C240 601 210 601 180 601C150 601 120 601 90 601C60 601 30 601 15 601L0 601Z" fill="#22c31c"></path><path d="M0 491L15 488.2C30 485.3 60 479.7 90 474.7C120 469.7 150 465.3 180 460.7C210 456 240 451 270 448.5C300 446 330 446 360 448.3C390 450.7 420 455.3 450 458.5C480 461.7 510 463.3 540 466.2C570 469 600 473 630 479C660 485 690 493 720 492.3C750 491.7 780 482.3 810 479.8C840 477.3 870 481.7 885 483.8L900 486L900 601L885 601C870 601 840 601 810 601C780 601 750 601 720 601C690 601 660 601 630 601C600 601 570 601 540 601C510 601 480 601 450 601C420 601 390 601 360 601C330 601 300 601 270 601C240 601 210 601 180 601C150 601 120 601 90 601C60 601 30 601 15 601L0 601Z" fill="#26b618"></path><path d="M0 518L15 513.5C30 509 60 500 90 499.8C120 499.7 150 508.3 180 516.8C210 525.3 240 533.7 270 536C300 538.3 330 534.7 360 532C390 529.3 420 527.7 450 527.3C480 527 510 528 540 522.7C570 517.3 600 505.7 630 502C660 498.3 690 502.7 720 505.3C750 508 780 509 810 504.7C840 500.3 870 490.7 885 485.8L900 481L900 601L885 601C870 601 840 601 810 601C780 601 750 601 720 601C690 601 660 601 630 601C600 601 570 601 540 601C510 601 480 601 450 601C420 601 390 601 360 601C330 601 300 601 270 601C240 601 210 601 180 601C150 601 120 601 90 601C60 601 30 601 15 601L0 601Z" fill="#28a914"></path><path d="M0 524L15 524C30 524 60 524 90 529.8C120 535.7 150 547.3 180 549C210 550.7 240 542.3 270 544.7C300 547 330 560 360 563.3C390 566.7 420 560.3 450 553.3C480 546.3 510 538.7 540 540.8C570 543 600 555 630 562C660 569 690 571 720 568.5C750 566 780 559 810 552.2C840 545.3 870 538.7 885 535.3L900 532L900 601L885 601C870 601 840 601 810 601C780 601 750 601 720 601C690 601 660 601 630 601C600 601 570 601 540 601C510 601 480 601 450 601C420 601 390 601 360 601C330 601 300 601 270 601C240 601 210 601 180 601C150 601 120 601 90 601C60 601 30 601 15 601L0 601Z" fill="#299c10"></path></svg>