<svg id="visual" viewBox="0 0 900 600" width="900" height="600" xmlns="http://www.w3.org/2000/svg" xmlns:xlink="http://www.w3.org/1999/xlink" version="1.1"><path d="M0 325L129 305L257 265L386 334L514 303L643 336L771 273L900 292L900 601L771 601L643 601L514 601L386 601L257 601L129 601L0 601Z" fill="#f24b0c"></path><path d="M0 345L129 371L257 364L386 299L514 365L643 307L771 378L900 325L900 601L771 601L643 601L514 601L386 601L257 601L129 601L0 601Z" fill="#f55907"></path><path d="M0 389L129 379L257 377L386 410L514 397L643 410L771 357L900 376L900 601L771 601L643 601L514 601L386 601L257 601L129 601L0 601Z" fill="#f86503"></path><path d="M0 405L129 388L257 454L386 414L514 438L643 426L771 438L900 454L900 601L771 601L643 601L514 601L386 601L257 601L129 601L0 601Z" fill="#fa7100"></path><path d="M0 482L129 489L257 490L386 485L514 467L643 460L771 462L900 459L900 601L771 601L643 601L514 601L386 601L257 601L129 601L0 601Z" fill="#fc7d00"></path><path d="M0 529L129 501L257 504L386 514L514 502L643 481L771 500L900 520L900 601L771 601L643 601L514 601L386 601L257 601L129 601L0 601Z" fill="#fe8800"></path><path d="M0 537L129 526L257 556L386 544L514 530L643 564L771 530L900 553L900 601L771 601L643 601L514 601L386 601L257 601L129 601L0 601Z" fill="#ff9300"></path></svg>