<svg id="visual" viewBox="0 0 900 600" width="900" height="600" xmlns="http://www.w3.org/2000/svg" xmlns:xlink="http://www.w3.org/1999/xlink" version="1.1"><path d="M0 257L10 253C20 249 40 241 60 239C80 237 100 241 120 243C140 245 160 245 180 248.8C200 252.7 220 260.3 240 254.5C260 248.7 280 229.3 300 229.7C320 230 340 250 360 262.5C380 275 400 280 420 282.2C440 284.3 460 283.7 480 273.8C500 264 520 245 540 234.7C560 224.3 580 222.7 600 223.2C620 223.7 640 226.3 660 231.2C680 236 700 243 720 250.3C740 257.7 760 265.3 780 263.2C800 261 820 249 840 250.3C860 251.7 880 266.3 890 273.7L900 281L900 601L890 601C880 601 860 601 840 601C820 601 800 601 780 601C760 601 740 601 720 601C700 601 680 601 660 601C640 601 620 601 600 601C580 601 560 601 540 601C520 601 500 601 480 601C460 601 440 601 420 601C400 601 380 601 360 601C340 601 320 601 300 601C280 601 260 601 240 601C220 601 200 601 180 601C160 601 140 601 120 601C100 601 80 601 60 601C40 601 20 601 10 601L0 601Z" fill="#ffab00"></path><path d="M0 308L10 313.3C20 318.7 40 329.3 60 333.3C80 337.3 100 334.7 120 328C140 321.3 160 310.7 180 309.8C200 309 220 318 240 322.5C260 327 280 327 300 330C320 333 340 339 360 337.8C380 336.7 400 328.3 420 321C440 313.7 460 307.3 480 308.7C500 310 520 319 540 325C560 331 580 334 600 328.5C620 323 640 309 660 299.8C680 290.7 700 286.3 720 291.5C740 296.7 760 311.3 780 313.3C800 315.3 820 304.7 840 305.2C860 305.7 880 317.3 890 323.2L900 329L900 601L890 601C880 601 860 601 840 601C820 601 800 601 780 601C760 601 740 601 720 601C700 601 680 601 660 601C640 601 620 601 600 601C580 601 560 601 540 601C520 601 500 601 480 601C460 601 440 601 420 601C400 601 380 601 360 601C340 601 320 601 300 601C280 601 260 601 240 601C220 601 200 601 180 601C160 601 140 601 120 601C100 601 80 601 60 601C40 601 20 601 10 601L0 601Z" fill="#ff9d00"></path><path d="M0 355L10 355.5C20 356 40 357 60 359C80 361 100 364 120 372.3C140 380.7 160 394.3 180 402C200 409.7 220 411.3 240 411.5C260 411.7 280 410.3 300 408.7C320 407 340 405 360 403.8C380 402.7 400 402.3 420 402.3C440 402.3 460 402.7 480 398.7C500 394.7 520 386.3 540 380.8C560 375.3 580 372.7 600 372.8C620 373 640 376 660 375.7C680 375.3 700 371.7 720 372.7C740 373.7 760 379.3 780 381.8C800 384.3 820 383.7 840 380C860 376.3 880 369.7 890 366.3L900 363L900 601L890 601C880 601 860 601 840 601C820 601 800 601 780 601C760 601 740 601 720 601C700 601 680 601 660 601C640 601 620 601 600 601C580 601 560 601 540 601C520 601 500 601 480 601C460 601 440 601 420 601C400 601 380 601 360 601C340 601 320 601 300 601C280 601 260 601 240 601C220 601 200 601 180 601C160 601 140 601 120 601C100 601 80 601 60 601C40 601 20 601 10 601L0 601Z" fill="#ff8f00"></path><path d="M0 438L10 439.3C20 440.7 40 443.3 60 448C80 452.7 100 459.3 120 457.2C140 455 160 444 180 444C200 444 220 455 240 455.2C260 455.3 280 444.7 300 439C320 433.3 340 432.7 360 435.3C380 438 400 444 420 444.8C440 445.7 460 441.3 480 437.2C500 433 520 429 540 428C560 427 580 429 600 435.2C620 441.3 640 451.7 660 456C680 460.3 700 458.7 720 454.2C740 449.7 760 442.3 780 438.7C800 435 820 435 840 434.2C860 433.3 880 431.7 890 430.8L900 430L900 601L890 601C880 601 860 601 840 601C820 601 800 601 780 601C760 601 740 601 720 601C700 601 680 601 660 601C640 601 620 601 600 601C580 601 560 601 540 601C520 601 500 601 480 601C460 601 440 601 420 601C400 601 380 601 360 601C340 601 320 601 300 601C280 601 260 601 240 601C220 601 200 601 180 601C160 601 140 601 120 601C100 601 80 601 60 601C40 601 20 601 10 601L0 601Z" fill="#ff8004"></path><path d="M0 500L10 504.3C20 508.7 40 517.3 60 523.2C80 529 100 532 120 527.8C140 523.7 160 512.3 180 508.8C200 505.3 220 509.7 240 512.7C260 515.7 280 517.3 300 518.5C320 519.7 340 520.3 360 523.3C380 526.3 400 531.7 420 534.3C440 537 460 537 480 534C500 531 520 525 540 525.3C560 525.7 580 532.3 600 533.3C620 534.3 640 529.7 660 526.5C680 523.3 700 521.7 720 519.8C740 518 760 516 780 512.7C800 509.3 820 504.7 840 503.2C860 501.7 880 503.3 890 504.2L900 505L900 601L890 601C880 601 860 601 840 601C820 601 800 601 780 601C760 601 740 601 720 601C700 601 680 601 660 601C640 601 620 601 600 601C580 601 560 601 540 601C520 601 500 601 480 601C460 601 440 601 420 601C400 601 380 601 360 601C340 601 320 601 300 601C280 601 260 601 240 601C220 601 200 601 180 601C160 601 140 601 120 601C100 601 80 601 60 601C40 601 20 601 10 601L0 601Z" fill="#ff710d"></path></svg>