<svg xmlns="http://www.w3.org/2000/svg" xmlns:xlink="http://www.w3.org/1999/xlink" width="900" height="220" version="1.1"><rect id="backgroundrect" width="100%" height="100%" x="0" y="0" fill="none" stroke="none"/><g class="currentLayer" style=""><title>Layer 1</title><path d="M0,46.270599365234375 L21.5,41.070599365234386 C43,35.970599365234364 86,25.570599365234386 128.8,19.770599365234375 C171.7,13.970599365234364 214.3,12.570599365234386 257.2,10.070599365234386 C300,7.570599365234386 343,3.9705993652343636 385.8,1.5705993652343864 C428.7,-0.729400634765625 471.3,-1.729400634765625 514.2,7.470599365234364 C557,16.570599365234386 600,35.970599365234364 642.8,37.970599365234364 C685.7,39.970599365234364 728.3,24.570599365234386 771.2,26.470599365234364 C814,28.270599365234375 857,47.270599365234375 878.5,56.770599365234375 L900,66.27059936523438 L900,220.27059936523438 L878.5,220.27059936523438 C857,220.27059936523438 814,220.27059936523438 771.2,220.27059936523438 C728.3,220.27059936523438 685.7,220.27059936523438 642.8,220.27059936523438 C600,220.27059936523438 557,220.27059936523438 514.2,220.27059936523438 C471.3,220.27059936523438 428.7,220.27059936523438 385.8,220.27059936523438 C343,220.27059936523438 300,220.27059936523438 257.2,220.27059936523438 C214.3,220.27059936523438 171.7,220.27059936523438 128.8,220.27059936523438 C86,220.27059936523438 43,220.27059936523438 21.5,220.27059936523438 L0,220.27059936523438 z" fill="#009717" id="svg_1" class=""/><path d="M0,77.27059936523438 L21.5,79.47059936523436 C43,81.57059936523439 86,85.97059936523436 128.8,76.97059936523436 C171.7,67.97059936523436 214.3,45.570599365234386 257.2,38.070599365234386 C300,30.570599365234386 343,37.970599365234364 385.8,36.270599365234375 C428.7,34.570599365234386 471.3,23.970599365234364 514.2,26.970599365234364 C557,29.970599365234364 600,46.570599365234386 642.8,50.470599365234364 C685.7,54.270599365234375 728.3,45.270599365234375 771.2,44.070599365234386 C814,42.970599365234364 857,49.570599365234386 878.5,52.970599365234364 L900,56.270599365234375 L900,220.27059936523438 L878.5,220.27059936523438 C857,220.27059936523438 814,220.27059936523438 771.2,220.27059936523438 C728.3,220.27059936523438 685.7,220.27059936523438 642.8,220.27059936523438 C600,220.27059936523438 557,220.27059936523438 514.2,220.27059936523438 C471.3,220.27059936523438 428.7,220.27059936523438 385.8,220.27059936523438 C343,220.27059936523438 300,220.27059936523438 257.2,220.27059936523438 C214.3,220.27059936523438 171.7,220.27059936523438 128.8,220.27059936523438 C86,220.27059936523438 43,220.27059936523438 21.5,220.27059936523438 L0,220.27059936523438 z" fill="#66a300" id="svg_2" class=""/><path d="M0,57.270599365234375 L21.5,65.77059936523438 C43,74.27059936523438 86,91.27059936523438 128.8,96.57059936523439 C171.7,101.97059936523436 214.3,95.57059936523439 257.2,89.47059936523436 C300,83.27059936523438 343,77.27059936523438 385.8,74.57059936523439 C428.7,71.97059936523436 471.3,72.57059936523439 514.2,74.57059936523439 C557,76.57059936523439 600,79.97059936523436 642.8,78.57059936523439 C685.7,77.27059936523438 728.3,71.27059936523438 771.2,67.07059936523439 C814,62.970599365234364 857,60.570599365234386 878.5,59.470599365234364 L900,58.270599365234375 L900,220.27059936523438 L878.5,220.27059936523438 C857,220.27059936523438 814,220.27059936523438 771.2,220.27059936523438 C728.3,220.27059936523438 685.7,220.27059936523438 642.8,220.27059936523438 C600,220.27059936523438 557,220.27059936523438 514.2,220.27059936523438 C471.3,220.27059936523438 428.7,220.27059936523438 385.8,220.27059936523438 C343,220.27059936523438 300,220.27059936523438 257.2,220.27059936523438 C214.3,220.27059936523438 171.7,220.27059936523438 128.8,220.27059936523438 C86,220.27059936523438 43,220.27059936523438 21.5,220.27059936523438 L0,220.27059936523438 z" fill="#9dac00" id="svg_3" class=""/><path d="M0,132.27059936523438 L21.5,129.5705993652344 C43,126.97059936523436 86,121.57059936523439 128.8,124.47059936523436 C171.7,127.27059936523438 214.3,138.27059936523438 257.2,139.57059936523433 C300,140.97059936523442 343,132.57059936523433 385.8,128.77059936523438 C428.7,124.97059936523436 471.3,125.57059936523439 514.2,125.77059936523438 C557,125.97059936523436 600,125.57059936523439 642.8,122.07059936523439 C685.7,118.57059936523439 728.3,111.97059936523436 771.2,109.77059936523438 C814,107.57059936523439 857,109.97059936523436 878.5,111.07059936523439 L900,112.27059936523438 L900,220.27059936523438 L878.5,220.27059936523438 C857,220.27059936523438 814,220.27059936523438 771.2,220.27059936523438 C728.3,220.27059936523438 685.7,220.27059936523438 642.8,220.27059936523438 C600,220.27059936523438 557,220.27059936523438 514.2,220.27059936523438 C471.3,220.27059936523438 428.7,220.27059936523438 385.8,220.27059936523438 C343,220.27059936523438 300,220.27059936523438 257.2,220.27059936523438 C214.3,220.27059936523438 171.7,220.27059936523438 128.8,220.27059936523438 C86,220.27059936523438 43,220.27059936523438 21.5,220.27059936523438 L0,220.27059936523438 z" fill="#cfb31c" id="svg_4" class=""/><path d="M0,174.27059936523438 L21.5,175.47059936523442 C43,176.57059936523433 86,178.97059936523442 128.8,174.77059936523438 C171.7,170.57059936523433 214.3,159.97059936523442 257.2,158.07059936523433 C300,156.27059936523438 343,163.27059936523438 385.8,167.97059936523442 C428.7,172.57059936523433 471.3,174.97059936523442 514.2,175.97059936523442 C557,176.97059936523442 600,176.57059936523433 642.8,173.97059936523442 C685.7,171.27059936523438 728.3,166.27059936523438 771.2,161.27059936523438 C814,156.27059936523438 857,151.27059936523438 878.5,148.77059936523438 L900,146.27059936523438 L900,220.27059936523438 L878.5,220.27059936523438 C857,220.27059936523438 814,220.27059936523438 771.2,220.27059936523438 C728.3,220.27059936523438 685.7,220.27059936523438 642.8,220.27059936523438 C600,220.27059936523438 557,220.27059936523438 514.2,220.27059936523438 C471.3,220.27059936523438 428.7,220.27059936523438 385.8,220.27059936523438 C343,220.27059936523438 300,220.27059936523438 257.2,220.27059936523438 C214.3,220.27059936523438 171.7,220.27059936523438 128.8,220.27059936523438 C86,220.27059936523438 43,220.27059936523438 21.5,220.27059936523438 L0,220.27059936523438 z" fill="#ffb83d" id="svg_5" class=""/></g></svg>