<?xml version="1.0" encoding="utf-8"?>
<svg viewBox="-0.582 1.744 504.652 118.605" xmlns="http://www.w3.org/2000/svg">
  <path d="M -6.395 30.795 L 5.889 26.624 C 18.173 22.396 42.741 14.054 67.195 13.654 C 91.706 13.254 116.045 20.91 140.556 18.968 C 165.01 17.082 189.578 5.655 214.032 6.684 C 238.542 7.769 262.882 21.253 287.393 24.967 C 311.847 28.681 336.415 22.624 360.868 15.654 C 385.379 8.683 409.719 0.913 434.23 3.256 C 458.683 5.655 483.251 18.225 495.535 24.51 L 507.819 30.795 L 507.819 124.496 L 495.535 124.496 C 483.251 124.496 458.683 124.496 434.23 124.496 C 409.719 124.496 385.379 124.496 360.868 124.496 C 336.415 124.496 311.847 124.496 287.393 124.496 C 262.882 124.496 238.542 124.496 214.032 124.496 C 189.578 124.496 165.01 124.496 140.556 124.496 C 116.045 124.496 91.706 124.496 67.195 124.496 C 42.741 124.496 18.173 124.496 5.889 124.496 L -6.395 124.496 L -6.395 30.795 Z" fill="#fa7268" style=""/>
  <path d="M -6.395 30.795 L 5.889 28.624 C 18.173 26.395 42.741 22.053 67.195 22.91 C 91.706 23.767 116.045 29.823 140.556 28.395 C 165.01 26.967 189.578 18.054 214.032 16.511 C 238.542 14.968 262.882 20.91 287.393 20.682 C 311.847 20.51 336.415 14.225 360.868 11.083 C 385.379 7.941 409.719 7.941 434.23 13.197 C 458.683 18.396 483.251 28.909 495.535 34.108 L 507.819 39.365 L 507.819 124.496 L 495.535 124.496 C 483.251 124.496 458.683 124.496 434.23 124.496 C 409.719 124.496 385.379 124.496 360.868 124.496 C 336.415 124.496 311.847 124.496 287.393 124.496 C 262.882 124.496 238.542 124.496 214.032 124.496 C 189.578 124.496 165.01 124.496 140.556 124.496 C 116.045 124.496 91.706 124.496 67.195 124.496 C 42.741 124.496 18.173 124.496 5.889 124.496 L -6.395 124.496 L -6.395 30.795 Z" fill="#ff815b" style=""/>
  <path d="M -6.395 33.08 L 5.889 34.794 C 18.173 36.508 42.741 39.936 67.195 45.65 C 91.706 51.363 116.045 59.362 140.556 58.676 C 165.01 58.048 189.578 48.678 214.032 44.621 C 238.542 40.508 262.882 41.65 287.393 42.622 C 311.847 43.536 336.415 44.336 360.868 44.907 C 385.379 45.478 409.719 45.821 434.23 49.535 C 458.683 53.249 483.251 60.333 495.535 63.819 L 507.819 67.361 L 507.819 124.496 L 495.535 124.496 C 483.251 124.496 458.683 124.496 434.23 124.496 C 409.719 124.496 385.379 124.496 360.868 124.496 C 336.415 124.496 311.847 124.496 287.393 124.496 C 262.882 124.496 238.542 124.496 214.032 124.496 C 189.578 124.496 165.01 124.496 140.556 124.496 C 116.045 124.496 91.706 124.496 67.195 124.496 C 42.741 124.496 18.173 124.496 5.889 124.496 L -6.395 124.496 L -6.395 33.08 Z" fill="#ff9250" style=""/>
  <path d="M -6.395 65.647 L 5.889 69.246 C 18.173 72.903 42.741 80.102 67.195 80.331 C 91.706 80.502 116.045 73.646 140.556 70.389 C 165.01 67.19 189.578 67.532 214.032 69.818 C 238.542 72.103 262.882 76.331 287.393 78.617 C 311.847 80.902 336.415 81.245 360.868 82.959 C 385.379 84.673 409.719 87.758 434.23 84.959 C 458.683 82.216 483.251 73.646 495.535 69.361 L 507.819 65.076 L 507.819 124.496 L 495.535 124.496 C 483.251 124.496 458.683 124.496 434.23 124.496 C 409.719 124.496 385.379 124.496 360.868 124.496 C 336.415 124.496 311.847 124.496 287.393 124.496 C 262.882 124.496 238.542 124.496 214.032 124.496 C 189.578 124.496 165.01 124.496 140.556 124.496 C 116.045 124.496 91.706 124.496 67.195 124.496 C 42.741 124.496 18.173 124.496 5.889 124.496 L -6.395 124.496 L -6.395 65.647 Z" fill="#ffa446" style=""/>
  <path d="M -6.395 91.358 L 5.889 92.615 C 18.173 93.814 42.741 96.328 67.195 97.071 C 91.706 97.814 116.045 96.9 140.556 98.1 C 165.01 99.357 189.578 102.785 214.032 104.784 C 238.542 106.784 262.882 107.355 287.393 106.898 C 311.847 106.384 336.415 104.899 360.868 104.956 C 385.379 105.07 409.719 106.784 434.23 107.241 C 458.683 107.755 483.251 106.955 495.535 106.613 L 507.819 106.213 L 507.819 124.496 L 495.535 124.496 C 483.251 124.496 458.683 124.496 434.23 124.496 C 409.719 124.496 385.379 124.496 360.868 124.496 C 336.415 124.496 311.847 124.496 287.393 124.496 C 262.882 124.496 238.542 124.496 214.032 124.496 C 189.578 124.496 165.01 124.496 140.556 124.496 C 116.045 124.496 91.706 124.496 67.195 124.496 C 42.741 124.496 18.173 124.496 5.889 124.496 L -6.395 124.496 L -6.395 91.358 Z" fill="#ffb83d" style=""/>
</svg>