<svg id="visual" viewBox="0 0 900 600" width="900" height="600" xmlns="http://www.w3.org/2000/svg" xmlns:xlink="http://www.w3.org/1999/xlink" version="1.1"><path d="M0 437L21.5 429.7C43 422.3 86 407.7 128.8 407C171.7 406.3 214.3 419.7 257.2 416.3C300 413 343 393 385.8 394.8C428.7 396.7 471.3 420.3 514.2 426.8C557 433.3 600 422.7 642.8 410.5C685.7 398.3 728.3 384.7 771.2 388.8C814 393 857 415 878.5 426L900 437L900 601L878.5 601C857 601 814 601 771.2 601C728.3 601 685.7 601 642.8 601C600 601 557 601 514.2 601C471.3 601 428.7 601 385.8 601C343 601 300 601 257.2 601C214.3 601 171.7 601 128.8 601C86 601 43 601 21.5 601L0 601Z" fill="#fa7268"></path><path d="M0 437L21.5 433.2C43 429.3 86 421.7 128.8 423.2C171.7 424.7 214.3 435.3 257.2 432.8C300 430.3 343 414.7 385.8 412C428.7 409.3 471.3 419.7 514.2 419.3C557 419 600 408 642.8 402.5C685.7 397 728.3 397 771.2 406.2C814 415.3 857 433.7 878.5 442.8L900 452L900 601L878.5 601C857 601 814 601 771.2 601C728.3 601 685.7 601 642.8 601C600 601 557 601 514.2 601C471.3 601 428.7 601 385.8 601C343 601 300 601 257.2 601C214.3 601 171.7 601 128.8 601C86 601 43 601 21.5 601L0 601Z" fill="#ff815b"></path><path d="M0 441L21.5 444C43 447 86 453 128.8 463C171.7 473 214.3 487 257.2 485.8C300 484.7 343 468.3 385.8 461.2C428.7 454 471.3 456 514.2 457.7C557 459.3 600 460.7 642.8 461.7C685.7 462.7 728.3 463.3 771.2 469.8C814 476.3 857 488.7 878.5 494.8L900 501L900 601L878.5 601C857 601 814 601 771.2 601C728.3 601 685.7 601 642.8 601C600 601 557 601 514.2 601C471.3 601 428.7 601 385.8 601C343 601 300 601 257.2 601C214.3 601 171.7 601 128.8 601C86 601 43 601 21.5 601L0 601Z" fill="#ff9250"></path><path d="M0 498L21.5 504.3C43 510.7 86 523.3 128.8 523.7C171.7 524 214.3 512 257.2 506.3C300 500.7 343 501.3 385.8 505.3C428.7 509.3 471.3 516.7 514.2 520.7C557 524.7 600 525.3 642.8 528.3C685.7 531.3 728.3 536.7 771.2 531.8C814 527 857 512 878.5 504.5L900 497L900 601L878.5 601C857 601 814 601 771.2 601C728.3 601 685.7 601 642.8 601C600 601 557 601 514.2 601C471.3 601 428.7 601 385.8 601C343 601 300 601 257.2 601C214.3 601 171.7 601 128.8 601C86 601 43 601 21.5 601L0 601Z" fill="#ffa446"></path><path d="M0 543L21.5 545.2C43 547.3 86 551.7 128.8 553C171.7 554.3 214.3 552.7 257.2 554.8C300 557 343 563 385.8 566.5C428.7 570 471.3 571 514.2 570.2C557 569.3 600 566.7 642.8 566.8C685.7 567 728.3 570 771.2 570.8C814 571.7 857 570.3 878.5 569.7L900 569L900 601L878.5 601C857 601 814 601 771.2 601C728.3 601 685.7 601 642.8 601C600 601 557 601 514.2 601C471.3 601 428.7 601 385.8 601C343 601 300 601 257.2 601C214.3 601 171.7 601 128.8 601C86 601 43 601 21.5 601L0 601Z" fill="#ffb83d"></path></svg>